v -30.45149993896484 -0.00927300006151 30.45149993896484
v -30.45149993896484 -0.00927300006151 -30.45149993896484
v 30.45149993896484 -0.00927300006151 -30.45149993896484
v 30.45149993896484 -0.00927300006151 30.45149993896484
v -30.45149993896484 0.03626500070095 30.45149993896484
v -30.45149993896484 0.03626500070095 -30.45149993896484
v 30.45149993896484 0.03626500070095 -30.45149993896484
v 30.45149993896484 0.03626500070095 30.45149993896484
# 8 vertices

vn -1 0 0
vn 0 0 -1
vn 1 0 0
vn 0 0 1
vn 0 -1 0
vn 0 1 0
# 6 normals

o floor
usemtl default
f 6//1 2//1 1//1
f 7//2 3//2 2//2
f 8//3 4//3 3//3
f 5//4 1//4 4//4
f 2//5 3//5 4//5
f 7//6 6//6 5//6
f 5//1 6//1 1//1
f 6//2 7//2 2//2
f 7//3 8//3 3//3
f 8//4 5//4 4//4
f 1//5 2//5 4//5
f 8//6 7//6 5//6

